<svg width="14" height="18" viewBox="0 0 14 18" fill="none" xmlns="http://www.w3.org/2000/svg">
<path d="M13.9503 14.4593L12.7484 12.415C12.1933 11.4714 11.9 10.3907 11.9 9.2907V7.49998C11.9 5.23927 10.4215 3.32715 8.39983 2.71071V1.42858C8.39983 0.640713 7.77191 0 6.99976 0C6.22762 0 5.5997 0.640713 5.5997 1.42858V2.71071C3.57804 3.32715 2.09958 5.23927 2.09958 7.49998V9.2907C2.09958 10.3907 1.80626 11.4707 1.25184 12.4143L0.0499042 14.4586C-0.0151983 14.5693 -0.0166093 14.7064 0.0457041 14.8186C0.108017 14.9307 0.223522 15 0.349527 15H13.65C13.776 15 13.8922 14.9307 13.9545 14.8193C14.0169 14.7078 14.0148 14.5693 13.9503 14.4593Z" fill="#323F73"/>
<path d="M5 16C5.44776 17.178 6.39568 18 7.49998 18C8.60428 18 9.55224 17.178 10 16H5V16Z" fill="#323F73"/>
</svg>
