<svg width="17" height="20" viewBox="0 0 17 20" fill="none" xmlns="http://www.w3.org/2000/svg">
<path fill-rule="evenodd" clip-rule="evenodd" d="M3 6C3 2.74515 5.53718 0 8.54545 0C11.5537 0 14 2.74515 14 6C14 9.25485 11.5537 12 8.54545 12C5.53718 12 3 9.25485 3 6ZM8.54696 14.6667C11.0355 14.6667 13.2531 13.6248 14.8015 12C16.1532 13.4186 17 15.277 17 17.3333V18.6667C17 19.4036 16.3699 20 15.5912 20H1.40884C0.630127 20 0 19.4036 0 18.6667V17.3333C0 15.277 0.846807 13.4186 2.19854 12C3.74686 13.6248 6.05839 14.6667 8.54696 14.6667Z" fill="#323F73"/>
</svg>
