<svg width="20" height="21" viewBox="0 0 20 21" fill="none" xmlns="http://www.w3.org/2000/svg">
<path fill-rule="evenodd" clip-rule="evenodd" d="M10.0768 7.98478L18.8789 4.35337C19.0371 4.28812 19.0413 4.06994 18.8857 3.99883L10.2679 0.0582211C10.0981 -0.019407 9.90193 -0.019407 9.73212 0.0582211L1.11426 3.99883C0.958697 4.06994 0.962934 4.28812 1.12115 4.35337L9.92319 7.98478C9.97229 8.00507 10.0277 8.00507 10.0768 7.98478ZM8.88525 9.95973L0.26025 6.01618C0.136688 5.95966 0 6.0582 0 6.20382V16.7466C0 17.013 0.149363 17.2526 0.377175 17.3515L8.74286 20.9852C8.86601 21.0387 9 20.9402 9 20.7962V10.1474C9 10.0654 8.95477 9.99153 8.88525 9.95973ZM11 20.7962V10.1474C11 10.0654 11.0452 9.99153 11.1147 9.95973L19.7397 6.01618C19.8633 5.95966 20 6.0582 20 6.20382V16.7466C20 17.013 19.8506 17.2525 19.6228 17.3515L11.2571 20.9852C11.134 21.0387 11 20.9402 11 20.7962Z" fill="#23A9A1"/>
</svg>
