<svg width="18" height="14" viewBox="0 0 18 14" fill="none" xmlns="http://www.w3.org/2000/svg">
<path d="M17.5 1.65738C16.8492 1.93846 16.1558 2.12477 15.4328 2.21523C16.1766 1.778 16.7442 1.09092 17.0111 0.262769C16.3177 0.669846 15.552 0.957385 14.7361 1.11785C14.0777 0.427538 13.1392 0 12.1155 0C10.1292 0 8.53016 1.58738 8.53016 3.53338C8.53016 3.81338 8.55422 4.08262 8.61328 4.33892C5.63062 4.19569 2.99141 2.78815 1.21844 0.644C0.908906 1.17277 0.727344 1.778 0.727344 2.42954C0.727344 3.65292 1.36719 4.73738 2.32094 5.36523C1.74453 5.35446 1.17906 5.18969 0.7 4.93015C0.7 4.94092 0.7 4.95492 0.7 4.96892C0.7 6.68554 1.94359 8.11138 3.57437 8.43985C3.28234 8.51846 2.96406 8.55615 2.63375 8.55615C2.40406 8.55615 2.17219 8.54323 1.95453 8.49585C2.41937 9.89477 3.73844 10.9232 5.30688 10.9566C4.08625 11.8968 2.53641 12.4632 0.858594 12.4632C0.564375 12.4632 0.282187 12.4503 0 12.4148C1.58922 13.4238 3.47266 14 5.50375 14C12.1056 14 15.715 8.61539 15.715 3.948C15.715 3.79185 15.7095 3.64108 15.7019 3.49138C16.4139 2.99385 17.0122 2.37246 17.5 1.65738Z" fill="#323F73"/>
</svg>
